<svg id="Capa_1" data-name="Capa 1" xmlns="http://www.w3.org/2000/svg" viewBox="0 0 958.98 435.06"><defs><style>.cls-1{fill:#fff;fill-rule:evenodd;}</style></defs><title>Logo-Cinnapan-horizontal-branco</title><path class="cls-1" d="M148.1,138.36a10.12,10.12,0,0,0,9.4-.65,18.47,18.47,0,0,0,7-7.92,29.8,29.8,0,0,0,3-11.84,20.62,20.62,0,0,0-3-12q-3.32-5.46-10.72-8.68t-20-1.88a28,28,0,0,0-19.11,10.23,56.35,56.35,0,0,0-11.12,22.15,95.7,95.7,0,0,0-2.92,28.59,104.26,104.26,0,0,0,5.26,29.33A72.17,72.17,0,0,0,119.5,210a42.6,42.6,0,0,0,22.11,13.86,46.39,46.39,0,0,0,21.3.84,56.8,56.8,0,0,0,17.87-6.79,60.27,60.27,0,0,0,13.16-10.4q5.33-5.68,7.16-10a29.56,29.56,0,0,1,8,12.38,31.1,31.1,0,0,1,1.24,13.9,39.81,39.81,0,0,1-4.7,13.84,50.61,50.61,0,0,1-9.54,12.3,52.11,52.11,0,0,1-13.4,9.16,48.75,48.75,0,0,1-16.17,4.56,179.85,179.85,0,0,1-19.76.83,98.87,98.87,0,0,1-22.89-2.95,87,87,0,0,1-22.63-9.14,61.11,61.11,0,0,1-19.22-17.81q-8.28-11.56-12.86-29t-3.33-42.41q1-18.81,7.28-32.7a75.15,75.15,0,0,1,15.91-23.23,72.39,72.39,0,0,1,21.73-14.61A86.58,86.58,0,0,1,135.62,86a88.17,88.17,0,0,1,24.81.58,72.59,72.59,0,0,1,21.86,7.16,51.3,51.3,0,0,1,16.19,13,33.48,33.48,0,0,1,7.49,18q1.29,12.18-2.39,19.53a24.42,24.42,0,0,1-10,10.86,29.69,29.69,0,0,1-14.1,3.66,39.58,39.58,0,0,1-14.63-2.45,33.93,33.93,0,0,1-11.71-7.21,15.19,15.19,0,0,1-5-10.76Z"/><path class="cls-1" d="M275.42,350.91c130.64,39.29,351.28-58.27,367.83-60.75,24.84-9.54,118.07-32.73,170-25.33,1.54,9.43,7.71,39.31,32.12,41.4,29.75-5.57,23.65-39.82-5-46-6.43-26.89.21-53.65,1.14-73.58v-1l0,0q.07-3,.11-6.08.09-7.8-.5-15.28c-.07-1-.17-2-.29-3,0-.33-.06-.64-.09-.91h0a47.75,47.75,0,0,0-2.24-9.43,22.14,22.14,0,0,0-6.15-9.39Q828.24,138,821.58,138a32,32,0,0,0-13.79,2.82,38,38,0,0,0-10.46,7.23,46.79,46.79,0,0,0-7.65,9.8,70.2,70.2,0,0,0-5.15,10.72A71.62,71.62,0,0,0,784,157a29,29,0,0,0-3-9.8,17.1,17.1,0,0,0-6.31-6.73Q770.59,138,763.93,138q-8,0-12.46,3.07a16,16,0,0,0-6.14,7.23,13.87,13.87,0,0,0-.75,8.31,9.45,9.45,0,0,0,3.9,6.14,2.63,2.63,0,0,1-.91-2.57,5.26,5.26,0,0,1,1-2.49,1.48,1.48,0,0,1,1.83-.5c.72.27,1.28,1.38,1.66,3.32a43.12,43.12,0,0,1,.42,8.89,135.12,135.12,0,0,1-1.83,16.45q-1.67,10.46-.08,17.52a26,26,0,0,0,5.15,11.3,18.43,18.43,0,0,0,8.31,5.82,22.32,22.32,0,0,0,9.47,1.08,21.76,21.76,0,0,0,8.72-2.83,15.47,15.47,0,0,0,6-6c-2.55-.89-4.13-3.1-4.74-6.65a55.73,55.73,0,0,1-.41-12.79,85.06,85.06,0,0,1,3.65-12.13,99.07,99.07,0,0,1,5.82-12.71,59.65,59.65,0,0,1,7.31-10.63A18.86,18.86,0,0,1,808,152q3.49-1.15,4.65,3.33a46.81,46.81,0,0,1,1.08,12q-.08,7.47-1,16.78-.84,8.65-1.26,16.8c-1.92,18.74-2.41,35.1.34,53.9-54.6-15.13-130.51-8.95-209.62,10.58-153.24,37.82-321.82,38.47-351-25.21-35.85,16.08-30.09,89.81,24.3,110.82Z"/><path class="cls-1" d="M553,196.31a19.08,19.08,0,0,0-3.9-6.48A7.84,7.84,0,0,0,544,187c1.44.55,2.18,1.27,2.24,2.16a2.41,2.41,0,0,1-1,2.16,3.59,3.59,0,0,1-2.66.66c-1-.11-2-1-2.74-2.65a39,39,0,0,1-2.74-10.8,86.53,86.53,0,0,1-.75-13.63,65.36,65.36,0,0,1,1.42-12.46q1.25-5.64,3.73-7.31a21.22,21.22,0,0,0-5.64-4.82,24.31,24.31,0,0,0-6.82-2.57,18.64,18.64,0,0,0-9,.41,9.25,9.25,0,0,0-5,4.16,28.6,28.6,0,0,0-3.49,8.64,48.58,48.58,0,0,0-4.49-4.24,35.88,35.88,0,0,0-6.23-4.15,38.34,38.34,0,0,0-18.19-4.41q-5.82,0-11,6.15a51.18,51.18,0,0,0-8.56,15.45,82.06,82.06,0,0,0-4.49,20,54.08,54.08,0,0,0,1.5,20,32.33,32.33,0,0,0,9.22,15.45q6.64,6.15,18.77,6.15a21.37,21.37,0,0,0,8.64-1.66,22.58,22.58,0,0,0,6.81-4.57,32.45,32.45,0,0,0,5.24-6.65,45.27,45.27,0,0,0,3.74-7.89,41,41,0,0,0,8,14.87,16.48,16.48,0,0,0,13,5.9q7.63,0,12.21-2.49a16.18,16.18,0,0,0,6.65-6.23,16.53,16.53,0,0,0,2.07-8.14A23.6,23.6,0,0,0,553,196.31Zm-45.52-4.07a30.76,30.76,0,0,1-2.91,5.57,15.33,15.33,0,0,1-3.9,4.07,8.64,8.64,0,0,1-5.07,1.58c-2.33,0-4.18-1.28-5.57-3.82a27.47,27.47,0,0,1-2.82-9.47,74.37,74.37,0,0,1-.5-12.38,69.92,69.92,0,0,1,1.5-12.38,38.57,38.57,0,0,1,3.24-9.47q2-3.83,4.65-3.82a9.78,9.78,0,0,1,4.57,1.08,16.58,16.58,0,0,1,3.74,2.66,18.33,18.33,0,0,1,2.9,3.57,32.61,32.61,0,0,1,2.08,3.82q-.5,5.33-.5,11.13a100.64,100.64,0,0,0,.67,11.63A52.32,52.32,0,0,1,507.51,192.24Z"/><path class="cls-1" d="M744.69,196.31a19.08,19.08,0,0,0-3.9-6.48,7.84,7.84,0,0,0-5.15-2.82c1.44.55,2.18,1.27,2.24,2.16a2.39,2.39,0,0,1-1,2.16,3.58,3.58,0,0,1-2.65.66c-1.06-.11-2-1-2.75-2.65a39.34,39.34,0,0,1-2.74-10.8,86.52,86.52,0,0,1-.74-13.63,65.39,65.39,0,0,1,1.41-12.46c.83-3.76,2.07-6.2,3.74-7.31a21.41,21.41,0,0,0-5.65-4.82,24.31,24.31,0,0,0-6.82-2.57,18.64,18.64,0,0,0-9,.41,9.25,9.25,0,0,0-5,4.16,28.6,28.6,0,0,0-3.49,8.64,49.67,49.67,0,0,0-4.48-4.24,36,36,0,0,0-6.24-4.15,38.34,38.34,0,0,0-18.19-4.41q-5.8,0-11,6.15a51.18,51.18,0,0,0-8.56,15.45,82.06,82.06,0,0,0-4.48,20,54.08,54.08,0,0,0,1.49,20A32.33,32.33,0,0,0,661,215.25q6.65,6.15,18.77,6.15a21.37,21.37,0,0,0,8.64-1.66,22.75,22.75,0,0,0,6.82-4.57,32.76,32.76,0,0,0,5.23-6.65,45.27,45.27,0,0,0,3.74-7.89,41,41,0,0,0,8,14.87,16.5,16.5,0,0,0,13,5.9q7.65,0,12.21-2.49a16.18,16.18,0,0,0,6.65-6.23,16.53,16.53,0,0,0,2.07-8.14A23.6,23.6,0,0,0,744.69,196.31Zm-45.52-4.07a30.76,30.76,0,0,1-2.91,5.57,15.18,15.18,0,0,1-3.9,4.07,8.64,8.64,0,0,1-5.07,1.58c-2.32,0-4.18-1.28-5.56-3.82a27.25,27.25,0,0,1-2.83-9.47,74.37,74.37,0,0,1-.5-12.38,69.92,69.92,0,0,1,1.5-12.38,38.57,38.57,0,0,1,3.24-9.47q2-3.83,4.65-3.82a9.78,9.78,0,0,1,4.57,1.08,16.58,16.58,0,0,1,3.74,2.66,18.33,18.33,0,0,1,2.9,3.57,32.61,32.61,0,0,1,2.08,3.82q-.5,5.33-.5,11.13a100.64,100.64,0,0,0,.67,11.63A52.32,52.32,0,0,1,699.17,192.24Z"/><path class="cls-1" d="M645,166.82a37.68,37.68,0,0,0-3.57-13.7A26.17,26.17,0,0,0,632.66,143q-5.73-4-14.7-4.65a21.63,21.63,0,0,0-9.47,1.33,25.11,25.11,0,0,0-7.48,4.65,32.69,32.69,0,0,0-5.81,7,59.54,59.54,0,0,0-4.32,8.31,48.29,48.29,0,0,0-3.07-9.14A24.22,24.22,0,0,0,583,143.4a21,21,0,0,0-7-4.57,25.12,25.12,0,0,0-9.55-1.66q-7.32,0-10.3,2.41a8.51,8.51,0,0,0-3.41,5.56,11,11,0,0,0,.83,6,7.52,7.52,0,0,0,2.74,3.66,4,4,0,0,1-.08-3.08c.39-.94.94-1.41,1.66-1.41s1.5.64,2.33,1.91,1.44,3.57,1.82,6.9a83.54,83.54,0,0,1,.09,13.7q-.5,8.73-2.66,22.18a274.23,274.23,0,0,0-3.82,33.15q-.49,13,1.16,20.68T562,259.53a14.12,14.12,0,0,0,7.89,3.57,26.44,26.44,0,0,0,9.39-.75q5-1.25,10-2.57-2.65-.33-3.24-4.74a55.51,55.51,0,0,1,0-11.46q.59-7.07,1.91-16.2t2.49-19.11a42,42,0,0,0,9.89,8.48q6.39,4.16,16.86,5a12.66,12.66,0,0,0,8.64-2.91,34,34,0,0,0,8-8.88,68.14,68.14,0,0,0,6.4-12.88,80.72,80.72,0,0,0,4.07-14.95A62.08,62.08,0,0,0,645,166.82Zm-28.83,15a74.77,74.77,0,0,1-2.49,12.21,37,37,0,0,1-4,9.22c-1.55,2.44-3.15,3.6-4.82,3.49a8.77,8.77,0,0,1-5.15-1.91A18.54,18.54,0,0,1,596,200.8a22.54,22.54,0,0,1-2.5-4.74c-.6-1.6-1.08-3-1.41-4.23q.5-7.16.5-14,.83-3.31,2.16-7.31a39.08,39.08,0,0,1,3.32-7.39,19.56,19.56,0,0,1,4.74-5.57,9.31,9.31,0,0,1,6.39-2q3.5.16,5.24,4.15a29.82,29.82,0,0,1,2.16,9.72A63.29,63.29,0,0,1,616.13,181.86Z"/><path class="cls-1" d="M214.14,164.2a2.62,2.62,0,0,1-.91-2.58,4.61,4.61,0,0,1,1.08-2.49,1.62,1.62,0,0,1,1.91-.5c.72.28,1.27,1.39,1.66,3.33a43.9,43.9,0,0,1,.41,8.88,135.12,135.12,0,0,1-1.83,16.45q-1.65,10.47-.08,17.53a26.62,26.62,0,0,0,5.07,11.3,17.79,17.79,0,0,0,8.31,5.81,22.8,22.8,0,0,0,9.55,1.08,21.54,21.54,0,0,0,8.72-2.82,15.54,15.54,0,0,0,6-6c-1.11-.78-1.74-3.16-1.91-7.15s-.22-8.75-.16-14.28,0-11.44-.25-17.7a102,102,0,0,0-2-17.28,35.43,35.43,0,0,0-5.31-13.12,12,12,0,0,0-10.47-5.24,38.09,38.09,0,0,0-12.38,1.67,19.22,19.22,0,0,0-7.31,4.23,12.65,12.65,0,0,0-3.4,5.65,13.94,13.94,0,0,0-.42,5.82,15.43,15.43,0,0,0,1.5,4.81,5.26,5.26,0,0,0,2.24,2.58Z"/><path class="cls-1" d="M243.21,115.19a13,13,0,1,1-3.82-9.14,12.47,12.47,0,0,1,3.82,9.14Z"/><path class="cls-1" d="M257.35,164.2a9.48,9.48,0,0,1-3.91-6.15,13.94,13.94,0,0,1,.75-8.31,16.16,16.16,0,0,1,6.15-7.22q4.49-3.08,12.46-3.08,6.65,0,10.72,2.5a17.17,17.17,0,0,1,6.31,6.73,27.94,27.94,0,0,1,2.91,9.71A97.57,97.57,0,0,1,293.4,170a70.56,70.56,0,0,1,5.15-10.71,46.75,46.75,0,0,1,7.64-9.8,37.73,37.73,0,0,1,10.47-7.23,32,32,0,0,1,13.79-2.83q6.65,0,10.72,3.16a19.41,19.41,0,0,1,6.14,8.31A40.76,40.76,0,0,1,350,162.62a132.15,132.15,0,0,1,.5,13.46q-.09,6.88-.5,13.45c-.27,4.38-.39,8.31-.33,11.8a32.27,32.27,0,0,0,1.08,8.56q1,3.31,3.65,3.49a64.77,64.77,0,0,1-7.14,5.56,25.91,25.91,0,0,1-8,3.66,19.14,19.14,0,0,1-8.31.33,14.41,14.41,0,0,1-7.81-4.57q-2.49-2.49-2.91-8.56a114.26,114.26,0,0,1,0-13.62q.42-7.56,1.33-15.62t1-14.45A34.12,34.12,0,0,0,321.48,156q-1.17-3.75-4.65-2.58a18.47,18.47,0,0,0-8.06,5.81,61.74,61.74,0,0,0-7.23,10.47,96.28,96.28,0,0,0-5.81,12.55,100.39,100.39,0,0,0-3.82,12,71.78,71.78,0,0,0-.25,7.73,44.31,44.31,0,0,0,.58,6.48,13.53,13.53,0,0,0,1.66,4.81,5.78,5.78,0,0,0,3.16,2.58,15.09,15.09,0,0,1-6,5.9,19.79,19.79,0,0,1-8.73,2.49,23.59,23.59,0,0,1-9.47-1.5,19.22,19.22,0,0,1-8.3-6.14A27.57,27.57,0,0,1,259.43,205q-1.59-7.23.08-17.7a135.12,135.12,0,0,0,1.83-16.45,43,43,0,0,0-.42-8.88c-.39-1.94-.94-3.05-1.66-3.33a1.49,1.49,0,0,0-1.83.5,5.06,5.06,0,0,0-1,2.49,2.62,2.62,0,0,0,.91,2.58Z"/><path class="cls-1" d="M357.71,164.2a9.47,9.47,0,0,1-3.9-6.15,13.94,13.94,0,0,1,.74-8.31,16.16,16.16,0,0,1,6.15-7.22q4.49-3.08,12.46-3.08,6.64,0,10.72,2.5a17.1,17.1,0,0,1,6.31,6.73,27.52,27.52,0,0,1,2.91,9.71,97.57,97.57,0,0,1,.66,11.63,70.56,70.56,0,0,1,5.15-10.71,46.79,46.79,0,0,1,7.65-9.8A37.82,37.82,0,0,1,417,142.27a32,32,0,0,1,13.79-2.83q6.65,0,10.72,3.16a19.41,19.41,0,0,1,6.14,8.31,40.44,40.44,0,0,1,2.66,11.71,132.15,132.15,0,0,1,.5,13.46q-.07,6.88-.5,13.45t-.33,11.8a32.69,32.69,0,0,0,1.08,8.56c.67,2.21,1.88,3.37,3.66,3.49a65.85,65.85,0,0,1-7.15,5.56,25.8,25.8,0,0,1-8,3.66,19.14,19.14,0,0,1-8.31.33,14.41,14.41,0,0,1-7.81-4.57q-2.49-2.49-2.91-8.56a114.26,114.26,0,0,1,0-13.62q.42-7.56,1.33-15.62t1-14.45A33.47,33.47,0,0,0,421.84,156c-.77-2.5-2.33-3.36-4.65-2.58a18.47,18.47,0,0,0-8.06,5.81,61.74,61.74,0,0,0-7.23,10.47,96.28,96.28,0,0,0-5.81,12.55,100.39,100.39,0,0,0-3.82,12A74.46,74.46,0,0,0,392,202a44.31,44.31,0,0,0,.58,6.48,13.72,13.72,0,0,0,1.66,4.81,5.78,5.78,0,0,0,3.16,2.58,15,15,0,0,1-6,5.9,19.79,19.79,0,0,1-8.72,2.49,23.54,23.54,0,0,1-9.47-1.5,19.19,19.19,0,0,1-8.31-6.14A27.57,27.57,0,0,1,359.79,205q-1.57-7.23.08-17.7a135.12,135.12,0,0,0,1.83-16.45,43,43,0,0,0-.42-8.88c-.38-1.94-.94-3.05-1.66-3.33a1.49,1.49,0,0,0-1.83.5,5.16,5.16,0,0,0-1,2.49,2.65,2.65,0,0,0,.91,2.58Z"/><path class="cls-1" d="M842,270.11c7.88,2.2,13.49,8.1,8.61,11.62C846.55,285,842.22,273.8,842,270.11Z"/></svg>